/* XPM */
static char *_ae61a89a70c42199cc1700fee5af2cf1ehKdZcsUrNtuS3K[] = {
/* columns rows colors chars-per-pixel */
"64 64 9 1 ",
"  c black",
". c #13662B",
"X c #990030",
"o c #ED1C24",
"O c #FF3D47",
"+ c #69910A",
"@ c #78AB02",
"# c #FFC20E",
"$ c white",
/* pixels */
"@@@@@@@@@@@@@@@@@@@@@@@@@@@@@@@@@@@@@@@@@@@@@.@@@@@@@@@+@@@@@@@@",
"@@@@@@@@@@@@@@@@@@@@@@@.@@@@@@@@@@@@@@@@@.@@.@@@@@@@@@@@@@@@@@@@",
"@@.@@@@@@@@+@@@@@@@.@@.@@@@@@+@@@+@@@@@@@@.@.@+@@@@@@@@@@@@@.@@@",
"@.@@@@@@@@@@@@@@@@@@.@.@+@@@@@@@@@@@@@@@+@.@++@@@@@@@@@@@@@@@.@@",
"@.@+@@@@@@@@@@@@@@+@.@++@@@@@@@@@@@@@@@@@++@@@@@@@@@@@@@@@@+@.@@",
"@++@@@$@@@@@@@@@@@@++@@@@@@@@@@@@@@@@@@@@@@@@@@@@@@@@@@@$@@@++@@",
"@@@@@$#$@@@@@$@@@@@@@@@@@$@@@@@@@@@@@@@@@@@@@@@@@+@@@@@$#$@@@@@@",
"@@@@@@$@@@@@$#$@@@@@@@@@$#$@@@@@@@@@@@@@@@@@@@@@@@@@@@@@$@@@@@@@",
"@@@@@@@@@@@@@$@@@@@@@@@@@$@@@@@@@@@@@@$@@@@@@@@@@@@@@@@@@@@@@@@@",
"@@@@@@@@@@@@@@.@@@@@@@@@@@@@@@@@@@@@@$#$@@@@@@@@@@@@@@@@@@@@@@@@",
"@@@@@@@@@@@@@.@@@@@@@@@@@@@@@@@@@@@@@@$@@@@@@@@@@@@@@@@@@@@@@@@@",
"@@@@+@@@@@.@@.@@@@@@@@@@@@@@@@@.@@@@@@@@@@@@@@$@@@@@@@@@@@@@@@@@",
"@@@@@@@@@@@.@@@@@@@$@@@@@@@@@      @@@@@@@@@@$#$@@@@@@@@@@@@.@@@",
"@@@@@@@@@+@.@@@@@@$#$@@@@@@  oooOOO  @@@@@@@@@$@@@@@@@@@@@@.@@@@",
"@@@@@@@@@@++@@@@@@@$@@@@@  ooooooooOO  @@@@@@@@@@@@@@@@@.@@.@+@@",
"@@@@@.@@@@@@@@@@@@@@@@@@ ooooooooooooOO @@@@@@@@@@@@@@@@@.@++@@@",
"@@@@@@.@@@@@@@@@@@@@@@@ oooooooooooooooO @@@@@@@@@@.@@@+@.@@@@@@",
"@@@@+@.@@@@@@@@@@@@@@@@ oooooooooooo$$oO @@@@@@@@@.@@@@@++@@@@@@",
"@@@@@++@.@@@@+@@@@@@@@ oooooooooooooo$ooO @@@@@.@@.@+@@@@@@@@@@@",
"@@@@@@@.@@@@@@@@@@@@@@ oooooooooooooo$$oO @@@@@@.@++@@@@@@@@@@@@",
"@@@@@@@.@+@@@@@@@@@@@ oooooooooooooooo$ooO @@@+@.@@@@@@@@@@@@@@@",
"@@@@@@@++@@@@@@@@@@@@ oooooooooooooooo$ooO @@@@++@@@@@@@@@@@@@@@",
"@@@@@@@@@@@@@@@@@@@@@ Xooooooooooooooo$ooO @@@@@@@@@@@@@@@@@@@@@",
"@@@@@@@@@@@@@@@@@+@@@ XXoooooooooooooo$ooO @@@@@@@@@@@@@@@@@+@@@",
"@@@@@@@@@$@@@@@@@@@@@ XXXooooooooooooooooO @@@@@@@@@@@@@@@@@@@@@",
"@@@@@@@@$#$@@@@@@@@@@ XXXooooooooooooooooO $@@@@@+@@@@@$@@@@@@@@",
"@@@@@@@@@$@@@@@@@@@@@@ XXXXoooooooooooooO $#$@@@@@@@@@$#$@@@@@@@",
"@@@@@@@@.@@@@@@@@@@@@.@ XXXXoooooooooooO @@$@@@@@@@@@@@$@@@@@@@@",
"@@@@.@@.@@@@@@@@@@@@.@@ XXXXXooooooooooO @@@@@@@@@@@@@@@@@@@@@+@",
"@@@@@.@.@+@@@@@@@.@@.@+@ XXXXXXXooooooO @@@@@@@@@@@@@@@@@@@@@@@@",
"@@@+@.@++@@@@@@@@@.@++@@@  XXXXXXXXoo  @@@@@@@@@@@@@@@@@@@@@@@@@",
"@@@@++@@@@@@@@@@+@.@@@@@@@@  XXXXXX  @@@@@@@@@@@@@@@@@@@@@@@.@@@",
"@@@@@@@@@@@@@@@@@++@@@@@@@@$@      @@@@@@@@@@@@@@@@@@@@@@@@.@@@@",
"@@@@@@@@@@@@@@$@@@@@@@@@@@$#$@@  @@@@@@@@.@@@@@@@@@+@@@@@@@.@+@@",
"@@@@@@@@@@@@@$#$@@@@@@@@@@@$@@ oo @@@@@@.@@@@@@@@@@@@@@@@.@++@@@",
"@@@@@@@@@@@@@@$@@@@@@@@@@@@@@ oooo @@.@@.@+@@@@@+@@@@@@@@@.@@@@@",
"@@@@@@@@@@@@@@@@@@@@@@@@@@@@@@    @@@@.@++@@@@@@@@@@@@@@+@.@@@@@",
"@@@+@@@@@$@@@@@@@@@@@@@@@@@@@@@@ @@@+@.@@@@@@@@@@@@@@@@@@++@@@@@",
"@@@@@@@@$#$@@@$@@@@@@@@@@@.@@@@@ @@@@++@@@@@@@@@@@@@@@@@@@@@@@@@",
"@@@@@@@@@$@@@$#$@@@@@@@@@.@@@@@@ @@@@@@@@@@@@@@@@@@@@@@@@@@@@@@@",
"@@@@@@@@@@@@@@$@@@@@@@.@@.@+@@@ @@@@@@@@@@@@@@@@@$@@@@@@@@@@@@@@",
"@@@@@@@@@@@@@@@@@@@@@@@.@++@@@@ @@@@@@$@@@@@@@@@$#$@@@@@@@@@@@@@",
"@@@@@@@@@@@@@@@@@@@@@+@.@@@@@@@ @@@@@$#$@@@@@+@@@$@@@@@@@@@@@@@@",
"@@@@@@@@@.@@@@@@@@@@@@++@@@@@@@@ @@@@@$@@@@@@@@@@@@@@@@@@@@@@+@@",
"@@@@@@@@.@@@@@@@@@@@@@@@@@@@@@@@ @@@@@@@@@@@@@@@@@@@@@@@$@@@@@@@",
"@@@@@.@@.@+@@@@@@@@@@@@@@@@@@@@@ @@@@@@@@@@@@@@@@@@@@@@$#$@@@@@@",
"@@@@@@.@++@@@@@@@@@@@@@@@@@@@+@@ @@@@@@@@@@@@@@@.@@@@@@@$@@@@@@@",
"@@@@+@.@@@@@@@@@+@@@@@@@@@@@@@@@$ @@@@@@@@@@@@@.@@@@@@@@@@@@@@@@",
"@@@@@++@@@@@@@@@@@@@@@@@@@@@@@@$# @@@@@@@@@@.@@.@+@@@@@@@@@@@@@@",
"@@@@@@@@@@@+@@@@@@@@@@@$@@@@@@@@$ @@@@@@@@@@@.@++@@@@@@@@@@@@@@@",
"@@@@@@@@@@@@@@@@@@@@@@$#$@@@@@@@@ @@@@@@@@@+@.@@@@@@@@@@@@@@@@@@",
"@@@@@@@@@@@@@@@@@@@@@@@$@@@@@@@@ @@@@@$@@@@@++@@@@@@@@@@@@@.@@@@",
"@@@@+@@@@@@@@@@@@@@@@@@@@@@@@@@@ @@@@$#$@@@@@@@@@@@@@@@.@@.@@@@@",
"@@@@@@@@@@@@@@@@@@@@@@@@@@@@@@@@ @@@@@$@@@@@@@@@@@@@@@@@.@.@+@$@",
"@@@@@@@@@+@@@@@$@@@@@@@@@@@@@.@ @@@@@@@@@@@@@@@@@@@@@@+@.@++@$#$",
"@@@@@@@@@@@@@@$#$@@@@@@@@@@@.@@ @@@@@@@@@@@@@@@@@@@@$@@++@@@@@$@",
"@@@@@@@@@@@@@@@$@@@@@@@@@.@@.@+ @@@@@@@@@@@@@@@@@@@$#$@@@@@@@@@@",
"@@@@@@.@@@@@@@@@@@@@@@@@@@.@++@@ @@@@@.@@@@@@+@@@@@@$@@@@@@@@@@@",
"@@@@@.@@$@@@@@@@@@@@@@@@+@.@@@@@@@@@@.@@$@@@@@@@@@@@@@@$@@@@@@@@",
"@@.@@.@$#$@@@@@@@@@@+@@@@++@@@@@@@.@@.@$#$@@@@@@@@@@@@$#$@@@@@@@",
"@@@.@++@$@@@@@@@@@@@@@@@@@@@@@@@@@@.@++@$@@@@@@@@@@@@@@$@@@@.@@@",
"@+@.@@@@@@@@@@@@@@@@@@@@@@@@@@@@@+@.@@@@@@@@@@@@@@@@@@@@@@@@@.@@",
"@@++@@@@@@@@@@@@+@@@@@@@@@@@@@@@@@++@@@@@@@@@@@@@+@@@@@@@@@+@.@@",
"@@@@@@@@@@@@@@@@@@@@@@@@@@@@@@@@@@@@@@@@@@@@@@@@@@@@@@@@@@@@++@@"
};
