/* XPM */
static char *_9d173ecdae648d0f7860f026fc498f1SgooqcsWiuPnvvav[] = {
/* columns rows colors chars-per-pixel */
"64 64 10 1 ",
"  c black",
". c #13662B",
"X c #464646",
"o c #69910A",
"O c #78AB02",
"+ c #FFC20E",
"@ c #00B7EF",
"# c #FFF9BD",
"$ c #99D9EA",
"% c white",
/* pixels */
"OOOOOOOOOOOOOOOOOOOOOOOOOOOOOOOOOOOOOOOOOOOOO.OOOOOOOOOoOOOOOOOO",
"OOOOOOOOOOOOOOOOOOOOOOO.OOOOOOOOOOOOOOOOO.OO.OOOOOOOOOOOOOOOOOOO",
"OO.OOOOOOOOoOOOOOOO.OO.OOOOOOoOOOoOOOOOOOO.O.OoOOOOOOOOOOOOO.OOO",
"O.OOOOOOOOOOOOOOOOOO.O.OoOOOOOOOOOOOOOOOoO.OooOOOOOOOOOOOOOOO.OO",
"O.OoOOOOOOOOOOOOOOoO.OooOOOOOOOOOOOOOOOOOooOOOOOOOOOOOOOOOOoO.OO",
"OooOOO%OOOOOOOOOOOOooOOOOOOOOOOOOOOOOOOOOOOOOOOOOOOOOOOO%OOOooOO",
"OOOOO%+%OOOOO%OOOOOOOOOOO%OOOOOOOOOOOOOOOOOOOOOOOoOOOOO%+%OOOOOO",
"OOOOOO%OOOOO%+%OOOOOOOOO%+%OOOOOOOOOOOOOOOOOOOOOOOOOOOOO%OOOOOOO",
"OOOOOOOOOOOOO%OOOOOOOOOOO%OO   OOOOOOO%   OOOOOOOOOOOOOOOOOOOOOO",
"OOOOOOOOOOOOOO.OOOOOOOOOOOOO X OOOOOO%+ X OOOOOOOOOOOOOOOOOOOOOO",
"OOOOOOOOOOOOO.OOOOOOOOOOOO  X# OOOOOO  X# OOOOOOOOOOOOOOOOOOOOOO",
"OOOOoOOOOO.OO.OOOOOOOOOO  XX## .OOO  XX## OOOO%OOOOOOOOOOOOOOOOO",
"OOOOOOOOOOO.OOOOOOO%OOOO XX### OOOO XX### OOO%+%OOOOOOOOOOOO.OOO",
"OOOOOOOOOoO.OOOOOO%+%O  XX#### Oo  XX#### OOOO%OOOOOOOOOOOO.OOOO",
"OOOOOOOOOOooOOOOOOO%OO XX##### oO XX##### OOOOOOOOOOOOOO.OO.OoOO",
"OOOOO.OOOOOOOOOOOOOO                      OOOOOOOOOOOOOOO.OooOOO",
"OOOOOO.OOOOOOOOOOOOO XXXXXXXXXXXX      XX OOOOOOOOO.OOOoO.OOOOOO",
"OOOOoO.OOOOOOOOOOOOO XXXXXXXXXXXX@@@@@@XXX  OOOOOO.OOOOOooOOOOOO",
"OOOOOooO.OOOOoOOOOOO XXXXXXX  %  XX@@XX %%  OOO.OO.OoOOOOOOOOOOO",
"OOOOOOO.OOOOOOOOOOOO XXXXXXX %%% XX@@XX%%%  OOOO.OooOOOOOOOOOOOO",
"OOOOOOO.OoOOOOOOOOOO XXXXX  %%%%%  @@  %%%  OOoO.OOOOOOOOOOOOOOO",
"OOOOOOOooOOOOOOOOOOO XXXXX %%%%%%  @@  %%%  OOOooOOOOOOOOOOOOOOO",
"OOOOOOOOOOOOOOOOOOOO XXXXX%%%%%    @@   %%  OOOOOOOOOOOOOOOOOOOO",
"OOOOOOOOOOOOOOOOOoOO XXXXX%%%%%    @@   %%  OOOOOOOOOOOOOOOOoOOO",
"OOOOOOOOO%OOOOOOOOOO XXXXX%%%%%    @@   %%  OOOOOOOOOOOOOOOOOOOO",
"OOOOOOOO%+%OOOOOOOOO XXXXX%%%%%    @@         OOOoOOOOO%OOOOOOOO",
"OOOOOOOOO%OOOOOOOOOO XXXXX%%%%%    @@         OOOOOOOO%+%OOOOOOO",
"OOOOOOOO.OOOOOOOOOOO XXXXXXX%%%  #######      OOOOOOOOO%OOOOOOOO",
"OOOO.OO.OOOOOOOOOOOO XXXXXXX%%%  #######      OOOOOOOOOOOOOOOOoO",
"OOOOO.O.OoOOOOOOO.OO XXXXXXXXX$###########    OOOOOOOOOOOOOOOOOO",
"OOOoO.OooOOOOOOOOO.O XXXXXXXX$############### OOOOOOOOOOOOOOOOOO",
"OOOOooOOOOOOOOOOoO.O XXXXXXX$$############### OOOOOOOOOOOOOO.OOO",
"OOOOOOOOOOOOOOO  ooO @@@@@@@$## ############# OOOOOOOOOOOOO.OOOO",
"OOOOOOOOOOOOOO%  OOO @@@@@@@$##  ###########  OOOOOoOOOOOOO.OoOO",
"OOOOOOOOOOOOO%+ X  O @@@@@@@@$### ####      OOOOOOOOOOOOO.OooOOO",
"OOOOOOOOOOOOOO% XX O @@@@@@@@$$##      @@@@ OOOOoOOOOOOOOO.OOOOO",
"OOOOOOOOOOOOO  XXX O @@@@@@ @@@$$######@@@@ OOOOOOOOOOOOoO.OOOOO",
"OOOoOOOOO%OOO XXXX O @@@@@@ @@@@@@@@@@@@@@@ OOOOOOOOOOOOOooOOOOO",
"OOOOOOOO%+%OO XXXX O @@@@@@ @@@@@@@@@@@@@@@ OOOOOOOOOOOOOOOOOOOO",
"OOOOOOOOO%OOO XXX@@  $$$$$$ @@@@@@@@@@@@@@@ OOOOOOOOOOOOOOOOOOOO",
"OOOOOOOOOOOOO XXX@@  $$$$$$ @@@@@@@@@@@@@@@ OOOOO%OOOOOOOOOOOOOO",
"OOOOOOOOOOOOO @@@@@@ $$$$$$ @@@$$$$$$$$@@@@ OOOO%+%OOOOOOOOOOOOO",
"OOOOOOOOOOOOO  @@@@@ $$$$$$ @@@$$$$$$$$@@@@ OoOOO%OOOOOOOOOOOOOO",
"OOOOOOOOO.OOOOO  @@@ $$$$$  @$$$$$$$$$$$@@@ OOOOOOOOOOOOOOOOOoOO",
"OOOOOOOO.OOOOOOOO @@ $$$$$$$ $$$$$$$$$$$@@@ OOOOOOOOOOOO%OOOOOOO",
"OOOOO.OO.OoOOOOOO    $$$$$$$ $$$$$$$$$$$@@@ OOOOOOOOOOO%+%OOOOOO",
"OOOOOO.OooOOOOOOOOOO $$$$$$$ $$$$$$$$$$$@@@ OOOO.OOOOOOO%OOOOOOO",
"OOOOoO.OOOOOOOOOoOOO $$$$$$$ $$$$$$$$$$$@@  OOO.OOOOOOOOOOOOOOOO",
"OOOOOooOOOOOOOOOOOOO  $$$$$$              OO.OO.OoOOOOOOOOOOOOOO",
"OOOOOOOOOOOoOOOOOOOOOO $$$$ @@ O% @@@@@ OOOOO.OooOOOOOOOOOOOOOOO",
"OOOOOOOOOOOOOOOOOOOOOO      @@ OO @@@@@ OOOoO.OOOOOOOOOOOOOOOOOO",
"OOOOOOOOOOOOOOOOOOOOOOO% @@@@@ OO @@@@@ OOOOooOOOOOOOOOOOOO.OOOO",
"OOOOoOOOOOOOOOOOOOOOOOOO @@@@@ OO @@@@@ OOOOOOOOOOOOOOO.OO.OOOOO",
"OOOOOOOOOOOOOOOOOOOOOOOO $$$$$ OO $$$$$ OOOOOOOOOOOOOOOO.O.OoO%O",
"OOOOOOOOOoOOOOO%OOOOOOOO $$$$$ OO $$$$$ OOOOOOOOOOOOOOoO.OooO%+%",
"OOOOOOOOOOOOOO%+%OOOOOOO $$$$$ OO $$$$$ OOOOOOOOOOOO%OOooOOOOO%O",
"OOOOOOOOOOOOOOO%OOOOOOOO $$$$$$   $$$$$$  OOOOOOOOO%+%OOOOOOOOOO",
"OOOOOO.OOOOOOOOOOOOOOOOO $$$$$$$  $$$$$$$ OOOoOOOOOO%OOOOOOOOOOO",
"OOOOO.OO%OOOOOOOOOOOOOOO $$$$$$$  $$$$$$$ OOOOOOOOOOOOO%OOOOOOOO",
"OO.OO.O%+%OOOOOOOOOOoOOO                  OOOOOOOOOOOO%+%OOOOOOO",
"OOO.OooO%OOOOOOOOOOOOOOOOOOOOOOOOOO.OooO%OOOOOOOOOOOOOO%OOOO.OOO",
"OoO.OOOOOOOOOOOOOOOOOOOOOOOOOOOOOoO.OOOOOOOOOOOOOOOOOOOOOOOOO.OO",
"OOooOOOOOOOOOOOOoOOOOOOOOOOOOOOOOOooOOOOOOOOOOOOOoOOOOOOOOOoO.OO",
"OOOOOOOOOOOOOOOOOOOOOOOOOOOOOOOOOOOOOOOOOOOOOOOOOOOOOOOOOOOOooOO"
};
