/* XPM */
static char *_9eead343985484b96b4ff449153fdb6T8iexMMfzoS3JDMx[] = {
/* columns rows colors chars-per-pixel */
"64 64 10 1 ",
"  c black",
". c #13662B",
"X c #464646",
"o c #69910A",
"O c #78AB02",
"+ c #FFC20E",
"@ c #00B7EF",
"# c #FFF9BD",
"$ c #99D9EA",
"% c white",
/* pixels */
"OOOOOOOOOOOOOOOOOOOOOOOOOOOOOOOOOOOOOOOOOOOOO.OOOOOOOOOoOOOOOOOO",
"OOOOOOOOOOOOOOOOOOOOOOO.OOOOOOOOOOOOOOOOO.OO.OOOOOOOOOOOOOOOOOOO",
"OO.OOOOOOOOoOOOOOOO.OO.OOOOOOoOOOoOOOOOOOO.O.OoOOOOOOOOOOOOO.OOO",
"O.OOOOOOOOOOOOOOOOOO.O.OoOOOOOOOOOOOOOOOoO.OooOOOOOOOOOOOOOOO.OO",
"O.OoOOOOOOOOOOOOOOoO.OooOOOOOOOOOOOOOOOOOooOOOOOOOOOOOOOOOOoO.OO",
"OooOOO%OOOOOOOOOOOOooOOOOOOOOOOOOOOOOOOOOOOOOOOOOOOOOOOO%OOOooOO",
"OOOOO%+%OOOOO%OOOOOOOOOOO%OOOOOOOOOOOOOOOOOOOOOOOoOOOOO%+%OOOOOO",
"OOOOOO%OOOOO%+%OOOOOOOOO%+%OOOOOOOOOOOOOOOOOOOOOOOOOOOOO%OOOOOOO",
"OOOOOOOOOOOOO%OOOOOOOO   %OOOOOOO   OO%OOOOOOOOOOOOOOOOOOOOOOOOO",
"OOOOOOOOOOOOOO.OOOOOOO X OOOOOOOO X O%+%OOOOOOOOOOOOOOOOOOOOOOOO",
"OOOOOOOOOOOOO.OOOOOOOO #X  OOOOOO #X  %OOOOOOOOOOOOOOOOOOOOOOOOO",
"OOOOoOOOOO.OO.OOOOOOOO ##XX  OO.O ##XX  OOOOOO%OOOOOOOOOOOOOOOOO",
"OOOOOOOOOOO.OOOOOOO%OO ###XX O.OO ###XX OOOOO%+%OOOOOOOOOOOO.OOO",
"OOOOOOOOOoO.OOOOOO%+%O ####XX  Oo ####XX  OOOO%OOOOOOOOOOOO.OOOO",
"OOOOOOOOOOooOOOOOOO%OO #####XX oO #####XX OOOOOOOOOOOOOO.OO.OoOO",
"OOOOO.OOOOOOOOOOOOOOOO                      OOOOOOOOOOOOO.OooOOO",
"OOOOOO.OOOOOOOOOOOOOOO XX      XXXXXXXXXXXX OOOOOOO.OOOoO.OOOOOO",
"OOOOoO.OOOOOOOOOOOOO  XXX@@@@@@XXXXXXXXXXXX OOOOOO.OOOOOooOOOOOO",
"OOOOOooO.OOOOoOOOOOO  %% XX@@XX  %  XXXXXXX OOO.OO.OoOOOOOOOOOOO",
"OOOOOOO.OOOOOOOOOOOO  %%%XX@@XX %%% XXXXXXX OOOO.OooOOOOOOOOOOOO",
"OOOOOOO.OoOOOOOOOOOO  %%%  @@  %%%%%  XXXXX OOoO.OOOOOOOOOOOOOOO",
"OOOOOOOooOOOOOOOOOOO  %%%  @@  %%%%%% XXXXX OOOooOOOOOOOOOOOOOOO",
"OOOOOOOOOOOOOOOOOOOO  %%   @@    %%%%%XXXXX OOOOOOOOOOOOOOOOOOOO",
"OOOOOOOOOOOOOOOOOoOO  %%   @@    %%%%%XXXXX OOOOOOOOOOOOOOOOoOOO",
"OOOOOOOOO%OOOOOOOOOO  %%   @@    %%%%%XXXXX OOOOOOOOOOOOOOOOOOOO",
"OOOOOOOO%+%OOOOOOO         @@    %%%%%XXXXX OOOOOoOOOOO%OOOOOOOO",
"OOOOOOOOO%OOOOOOOO         @@    %%%%%XXXXX %OOOOOOOOO%+%OOOOOOO",
"OOOOOOOO.OOOOOOOOO      #######  %%%XXXXXXX OOOOOOOOOOO%OOOOOOOO",
"OOOO.OO.OOOOOOOOOO      #######  %%%XXXXXXX OOOOOOOOOOOOOOOOOOoO",
"OOOOO.O.OoOOOOOOO.    ###########$XXXXXXXXX OOOOOOOOOOOOOOOOOOOO",
"OOOoO.OooOOOOOOOOO ###############$XXXXXXXX OOOOOOOOOOOOOOOOOOOO",
"OOOOooOOOOOOOOOOoO ###############$$XXXXXXX OOOOOOOOOOOOOOOO.OOO",
"OOOOOOOOOOOOOOOOOo ############# ##$@@@@@@@ OOO  OOOOOOOOOO.OOOO",
"OOOOOOOOOOOOOO%OOO  ###########  ##$@@@@@@@ OOO  OOoOOOOOOO.OoOO",
"OOOOOOOOOOOOO%+%OOOO      #### ###$@@@@@@@@ O  X OOOOOOOO.OooOOO",
"OOOOOOOOOOOOOO%OOOOO @@@@      ##$$@@@@@@@@ O XX OOOOOOOOO.OOOOO",
"OOOOOOOOOOOOOOOOOOOO @@@@######$$@@@ @@@@@@ O XXX  OOOOOoO.OOOOO",
"OOOoOOOOO%OOOOOOOOOO @@@@@@@@@@@@@@@ @@@@@@ O XXXX OOOOOOooOOOOO",
"OOOOOOOO%+%OOO%OOOOO @@@@@@@@@@@@@@@ @@@@@@ O XXXX OOOOOOOOOOOOO",
"OOOOOOOOO%OOO%+%OOOO @@@@@@@@@@@@@@@ $$$$$$  @@XXX OOOOOOOOOOOOO",
"OOOOOOOOOOOOOO%OOOOO @@@@@@@@@@@@@@@ $$$$$$  @@XXX OOOOOOOOOOOOO",
"OOOOOOOOOOOOOOOOOOOO @@@@$$$$$$$$@@@ $$$$$$ @@@@@@ OOOOOOOOOOOOO",
"OOOOOOOOOOOOOOOOOOOO @@@@$$$$$$$$@@@ $$$$$$ @@@@@  OOOOOOOOOOOOO",
"OOOOOOOOO.OOOOOOOOOO @@@$$$$$$$$$$$@  $$$$$ @@@  OOOOOOOOOOOOoOO",
"OOOOOOOO.OOOOOOOOOOO @@@$$$$$$$$$$$ $$$$$$$ @@ OOOOOOOOO%OOOOOOO",
"OOOOO.OO.OoOOOOOOOOO @@@$$$$$$$$$$$ $$$$$$$    OOOOOOOO%+%OOOOOO",
"OOOOOO.OooOOOOOOOOOO @@@$$$$$$$$$$$ $$$$$$$ OOOO.OOOOOOO%OOOOOOO",
"OOOOoO.OOOOOOOOOoOOO  @@$$$$$$$$$$$ $$$$$$$ OOO.OOOOOOOOOOOOOOOO",
"OOOOOooOOOOOOOOOOOOOOO              $$$$$$  .OO.OoOOOOOOOOOOOOOO",
"OOOOOOOOOOOoOOOOOOOOOOO% @@@@@ O% @@ $$$$ OOO.OooOOOOOOOOOOOOOOO",
"OOOOOOOOOOOOOOOOOOOOOO%+ @@@@@ OO @@      OoO.OOOOOOOOOOOOOOOOOO",
"OOOOOOOOOOOOOOOOOOOOOOO% @@@@@ OO @@@@@ OOOOooOOOOOOOOOOOOO.OOOO",
"OOOOoOOOOOOOOOOOOOOOOOOO @@@@@ OO @@@@@ OOOOOOOOOOOOOOO.OO.OOOOO",
"OOOOOOOOOOOOOOOOOOOOOOOO $$$$$ OO $$$$$ OOOOOOOOOOOOOOOO.O.OoO%O",
"OOOOOOOOOoOOOOO%OOOOOOOO $$$$$ OO $$$$$ OOOOOOOOOOOOOOoO.OooO%+%",
"OOOOOOOOOOOOOO%+%OOOOOOO $$$$$ OO $$$$$ OOOOOOOOOOOO%OOooOOOOO%O",
"OOOOOOOOOOOOOOO%OOOOOO  $$$$$$   $$$$$$ OOOOOOOOOOO%+%OOOOOOOOOO",
"OOOOOO.OOOOOOOOOOOOOOO $$$$$$$  $$$$$$$ OOOOOoOOOOOO%OOOOOOOOOOO",
"OOOOO.OO%OOOOOOOOOOOOO $$$$$$$  $$$$$$$ %OOOOOOOOOOOOOO%OOOOOOOO",
"OO.OO.O%+%OOOOOOOOOOoO                  +%OOOOOOOOOOOO%+%OOOOOOO",
"OOO.OooO%OOOOOOOOOOOOOOOOOOOOOOOOOO.OooO%OOOOOOOOOOOOOO%OOOO.OOO",
"OoO.OOOOOOOOOOOOOOOOOOOOOOOOOOOOOoO.OOOOOOOOOOOOOOOOOOOOOOOOO.OO",
"OOooOOOOOOOOOOOOoOOOOOOOOOOOOOOOOOooOOOOOOOOOOOOOoOOOOOOOOOoO.OO",
"OOOOOOOOOOOOOOOOOOOOOOOOOOOOOOOOOOOOOOOOOOOOOOOOOOOOOOOOOOOOooOO"
};
