/* XPM */
static char *_ac17975bec9479adb4c5573835ea510Xu2GObo7OZ3Mb4Pe[] = {
/* columns rows colors chars-per-pixel */
"64 64 9 1 ",
"  c black",
". c #13662B",
"X c #464646",
"o c #69910A",
"O c #78AB02",
"+ c #FFC20E",
"@ c #00B7EF",
"# c #99D9EA",
"$ c white",
/* pixels */
"OOOOOOOOOOOOOOOOOOOOOOOOOOOOOOOOOOOOOOOOOOOOO.OOOOOOOOOoOOOOOOOO",
"OOOOOOOOOOOOOOOOOOOOOOO.OOOOOOOOOOOOOOOOO.OO.OOOOOOOOOOOOOOOOOOO",
"OO.OOOOOOOOoOOOOOOO.OO.OOOOOOoOOOoOOOOOOOO.O.OoOOOOOOOOOOOOO.OOO",
"O.OOOOOOOOOOOOOOOOOO.O.OoOOOOOOOOOOOOOOOoO.OooOOOOOOOOOOOOOOO.OO",
"O.OoOOOOOOOOOOOOOOoO.OooOOOOOOOOOOOOOOOOOooOOOOOOOOOOOOOOOOoO.OO",
"OooOOO$OOOOOOOOOOOOooOOOOOOOOOOOOOOOOOOOOOOOOOOOOOOOOOOO$OOOooOO",
"OOOOO$+$OOOOO$OOOOOOOOOOO$OOOOOOOOOOOOOOOOOOOOOOOoOOOOO$+$OOOOOO",
"OOOOOO$OOOOO$+$OOOOOOOOO$+$OOOOOOOOOOOOOOOOOOOOOOOOOOOOO$OOOOOOO",
"OOOOOOOOOOOOO$OOOOOOOOOOO$OO   OOOOOOO$   OOOOOOOOOOOOOOOOOOOOOO",
"OOOOOOOOOOOOOO.OOOOOOOOOOOOO X OOOOOO$+ X OOOOOOOOOOOOOOOOOOOOOO",
"OOOOOOOOOOOOO.OOOOOOOOOOOO  XX OOOOOO  XX OOOOOOOOOOOOOOOOOOOOOO",
"OOOOoOOOOO.OO.OOOOOOOOOO  XXXX .OOO  XXXX OOOO$OOOOOOOOOOOOOOOOO",
"OOOOOOOOOOO.OOOOOOO$OOOO XXXXX OOOO XXXXX OOO$+$OOOOOOOOOOOO.OOO",
"OOOOOOOOOoO.OOOOOO$+$O  XXXXXX Oo  XXXXXX OOOO$OOOOOOOOOOOO.OOOO",
"OOOOOOOOOOooOOOOOOO$OO XXXXXXX oO XXXXXXX OOOOOOOOOOOOOO.OO.OoOO",
"OOOOO.OOOOOOOOOOOOOOO                     OOOOOOOOOOOOOOO.OooOOO",
"OOOOOO.OOOOOOOOOOOOO  XXXXXXXXXXXXXXXXXXX  OOOOOOOO.OOOoO.OOOOOO",
"OOOOoO.OOOOOOOOOOOOO XXXXXXXXXXXXXXXXXXXXX  OOOOOO.OOOOOooOOOOOO",
"OOOOOooO.OOOOoOOOOOO XXXXXXXXXXXXXXXXXXXXXX OOO.OO.OoOOOOOOOOOOO",
"OOOOOOO.OOOOOOOOOOOO XXXXXXXXXXXXXXXXXXXXXX OOOO.OooOOOOOOOOOOOO",
"OOOOOOO.OoOOOOOOOOOO XXXXXXXXXXXXXXXXXXXXXX OOoO.OOOOOOOOOOOOOOO",
"OOOOOOOooOOOOOOOOOOO XXXXXXXXXXXXXXXXXXXXXX OOOooOOOOOOOOOOOOOOO",
"OOOOOOOOOOOOOOOOOOOO XXXXXXXXXXXXXXXXXXXXXX OOOOOOOOOOOOOOOOOOOO",
"OOOOOOOOOOOOOOOOOoOO XXXXXXXXXXXXXXXXXXXXXX OOOOOOOOOOOOOOOOoOOO",
"OOOOOOOOO$OOOOOOOOOO XXXXXXXXXXXXXXXXXXXXXX OOOOOOOOOOOOOOOOOOOO",
"OOOOOOOO$+$OOOOOOOOO XXXXXXXXXXXXXXXXXXXXXX OOOOOoOOOOO$OOOOOOOO",
"OOOOOOOOO$OOOOOOOOOO XXXXXXXXXXXXXXXXXXXXXX $OOOOOOOOO$+$OOOOOOO",
"OOOOOOOO.OOOOOOOOOOO XXXXXXXXXXXXXXXXXXXXXX OOOOOOOOOOO$OOOOOOOO",
"OOOO.OO.OOOOOOOOOOOO XXXXXXXXXXXXXXXXXXXXXX OOOOOOOOOOOOOOOOOOoO",
"OOOOO.O.OoOOOOOOO.OO XXXXXXXXXXXXXXXXXXXXXX OOOOOOOOOOOOOOOOOOOO",
"OOOoO.OooOOOOOOOOO.O XXXXXXXXXXXXXXXXXXXXXX OOOOOOOOOOOOOOOOOOOO",
"OOOOooOOOOOOOOOOoO.O @@@@@@@@@@@@@@@@@@@@@@ OOOOOOOOOOOOOOOO.OOO",
"OOOOOOOOOOOOOOOOOooO @@@@@  @@@@@@@X@@@@@@@ OOOOOOOOOOOOOOO.OOOO",
"OOOOOOOOOOOOOO$OOOOO @@@@@  @@@@@@XXX@@@@@@ OOOOOOOoOOOOOOO.OoOO",
"OOOOOOOOOOOOO$+$OOOO @@@@@ X  @@@@@X@@@@@@@ OOOOOOOOOOOOO.OooOOO",
"OOOOOOOOOOOOOO$OOOOO @@@@@ XX @@@@@@@@@@X@@ OOOOoOOOOOOOOO.OOOOO",
"OOOOOOOOOOOOOOOOOOOO @@@  XXX @@@@@@@@@XXX@ OOOOOOOOOOOOoO.OOOOO",
"OOOoOOOOO$OOOOOOOOOO @@@ XXXX @@@@XXX@@@X@@ OOOOOOOOOOOOOooOOOOO",
"OOOOOOOO$+$OOO$OOOOO @@@ XXXX @@@XXXXX@@@@@ OOOOOOOOOOOOOOOOOOOO",
"OOOOOOOOO$OOO$+$OOOO @@@ XXX@@ @@XXXXX@@@@@ OOOOOOOOOOOOOOOOOOOO",
"OOOOOOOOOOOOOO$OOOOO @@@ XXX@@ @@XXXXX@@@@@ OOOOO$OOOOOOOOOOOOOO",
"OOOOOOOOOOOOOOOOOOOO @@@ @@@@@@  @XXX@@@@@@ OOOO$+$OOOOOOOOOOOOO",
"OOOOOOOOOOOOOOOOOOOO @@@  @@@@@@@ @@@@@@@@@ OoOOO$OOOOOOOOOOOOOO",
"OOOOOOOOO.OOOOOOOOOO @@@@@  @@@@@@ @@@@@@@@ OOOOOOOOOOOOOOOOOoOO",
"OOOOOOOO.OOOOOOOOOOO @@@@@@@ @@@@ @@@@@@@@@ OOOOOOOOOOOO$OOOOOOO",
"OOOOO.OO.OoOOOOOOOOO @@@@@@@     @@@@@@@@@@ OOOOOOOOOOO$+$OOOOOO",
"OOOOOO.OooOOOOOOOOOO @@@@@@@@@@@@@@@@@@@@@@ OOOO.OOOOOOO$OOOOOOO",
"OOOOoO.OOOOOOOOOoOOO  @@@@@@@@@@@@@@@@@@@@  OOO.OOOOOOOOOOOOOOOO",
"OOOOOooOOOOOOOOOOOOOO                      O.OO.OoOOOOOOOOOOOOOO",
"OOOOOOOOOOOoOOOOOOOOOOO$ @@@@@ O$ @@@@@ OOOOO.OooOOOOOOOOOOOOOOO",
"OOOOOOOOOOOOOOOOOOOOOO$+ @@@@@ OO @@@@@ OOOoO.OOOOOOOOOOOOOOOOOO",
"OOOOOOOOOOOOOOOOOOOOOOO$ @@@@@ OO @@@@@ OOOOooOOOOOOOOOOOOO.OOOO",
"OOOOoOOOOOOOOOOOOOOOOOOO @@@@@ OO @@@@@ OOOOOOOOOOOOOOO.OO.OOOOO",
"OOOOOOOOOOOOOOOOOOOOOOOO ##### OO ##### OOOOOOOOOOOOOOOO.O.OoO$O",
"OOOOOOOOOoOOOOO$OOOOOOOO ##### OO ##### OOOOOOOOOOOOOOoO.OooO$+$",
"OOOOOOOOOOOOOO$+$OOOOOOO ##### OO ##### OOOOOOOOOOOO$OOooOOOOO$O",
"OOOOOOOOOOOOOOO$OOOOOOOO ##### OO ##### OOOOOOOOOOO$+$OOOOOOOOOO",
"OOOOOO.OOOOOOOOOOOOOOOOO ##### OO ##### OOOOOoOOOOOO$OOOOOOOOOOO",
"OOOOO.OO$OOOOOOOOOOOOOOO ##### OO ##### $OOOOOOOOOOOOOO$OOOOOOOO",
"OO.OO.O$+$OOOOOOOOOOoOOO       OO       +$OOOOOOOOOOOO$+$OOOOOOO",
"OOO.OooO$OOOOOOOOOOOOOOOOOOOOOOOOOO.OooO$OOOOOOOOOOOOOO$OOOO.OOO",
"OoO.OOOOOOOOOOOOOOOOOOOOOOOOOOOOOoO.OOOOOOOOOOOOOOOOOOOOOOOOO.OO",
"OOooOOOOOOOOOOOOoOOOOOOOOOOOOOOOOOooOOOOOOOOOOOOOoOOOOOOOOOoO.OO",
"OOOOOOOOOOOOOOOOOOOOOOOOOOOOOOOOOOOOOOOOOOOOOOOOOOOOOOOOOOOOooOO"
};
