/* XPM */
static char *be28f6552c7449f8e06a2dd3b8528076n0IvQUicRbbiIiov[] = {
/* columns rows colors chars-per-pixel */
"64 64 10 1 ",
"  c black",
". c #13662B",
"X c #464646",
"o c #69910A",
"O c #78AB02",
"+ c #FFC20E",
"@ c #00B7EF",
"# c #FFF9BD",
"$ c #99D9EA",
"% c white",
/* pixels */
"OOOOOOOOOOOOOOOOOOOOOOOOOOOOOOOOOOOOOOOOOOOOO.OOOOOOOOOoOOOOOOOO",
"OOOOOOOOOOOOOOOOOOOOOOO.OOOOOOOOOOOOOOOOO.OO.OOOOOOOOOOOOOOOOOOO",
"OO.OOOOOOOOoOOOOOOO.OO.OOOOOOoOOOoOOOOOOOO.O.OoOOOOOOOOOOOOO.OOO",
"O.OOOOOOOOOOOOOOOOOO.O.OoOOOOOOOOOOOOOOOoO.OooOOOOOOOOOOOOOOO.OO",
"O.OoOOOOOOOOOOOOOOoO.OooOOOOOOOOOOOOOOOOOooOOOOOOOOOOOOOOOOoO.OO",
"OooOOO%OOOOOOOOOOOOooOOOOOOOOOOOOOOOOOOOOOOOOOOOOOOOOOOO%OOOooOO",
"OOOOO%+%OOOOO%OOOOOOOOOOO%OOOOOOOOOOOOOOOOOOOOOOOoOOOOO%+%OOOOOO",
"OOOOOO%OOOOO%+%OOOOOOOOO%+%OOOOOOOOOOOOOOOOOOOOOOOOOOOOO%OOOOOOO",
"OOOOOOOOOOOOO%OOOOOOOOOOO%  OOOOOOOOO  OOOOOOOOOOOOOOOOOOOOOOOOO",
"OOOOOOOOOOOOOO.OOOOOOOOOO    OOOOOOO    OOOOOOOOOOOOOOOOOOOOOOOO",
"OOOOOOOOOOOOO.OOOOOOOOOOO X#  OOOOO  #X  OOOOOOOOOOOOOOOOOOOOOOO",
"OOOOoOOOOO.OO.OOOOOOOOOO  X##  .OO  ###X OOOOO%OOOOOOOOOOOOOOOOO",
"OOOOOOOOOOO.OOOOOOO%OOO  X#### OOO #####X OOO%+%OOOOOOOOOOOO.OOO",
"OOOOOOOOOoO.OOOOOO%+%OO X#####  o  #####X OOOO%OOOOOOOOOOOO.OOOO",
"OOOOOOOOOOooOOOOOOO%OO  ####### O ####### OOOOOOOOOOOOOO.OO.OoOO",
"OOOOO.OOOOOOOOOOOOOOO                      OOOOOOOOOOOOOO.OooOOO",
"OOOOOO.OOOOOOOOOOOOO  XXXXXXXXXXXXXXXXXXXX  OOOOOOO.OOOoO.OOOOOO",
"OOOOoO.OOOOOOOOOOOOO XXXXXXXXXXXXXXXXXXXXXX OOOOOO.OOOOOooOOOOOO",
"OOOOOooO.OOOOoOOOOOO XXXX   XXXXXXXX   XXXX OOO.OO.OoOOOOOOOOOOO",
"OOOOOOO.OOOOOOOOOOOO XXX %%% XXXXXX %%% XXX OOOO.OooOOOOOOOOOOOO",
"OOOOOOO.OoOOOOOOOOOO XX %%%%% XXXX %%%%% XX OOoO.OOOOOOOOOOOOOOO",
"OOOOOOOooOOOOOOOOOOO XX %%%%% XXXX %%%%% XX OOOooOOOOOOOOOOOOOOO",
"OOOOOOOOOOOOOOOOOOOO XX%%%%%%%XXXX%%%%%%%XX OOOOOOOOOOOOOOOOOOOO",
"OOOOOOOOOOOOOOOOOoOO XX%%%  %%XXXX%%  %%%XX OOOOOOOOOOOOOOOOoOOO",
"OOOOOOOOO%OOOOOOOOOO XX%%%  %%XXXX%%  %%%XX OOOOOOOOOOOOOOOOOOOO",
"OOOOOOOO%+%OOOOOOOOO XX%%%  %%XXXX%%  %%%XX OOOOOoOOOOO%OOOOOOOO",
"OOOOOOOOO%OOOOOOOOOO XX%%%  %%XXXX%%  %%%XX %OOOOOOOOO%+%OOOOOOO",
"OOOOOOOO.OOOOOOOOOOO XXX%%%%%      %%%%%XXX OOOOOOOOOOO%OOOOOOOO",
"OOOO.OO.OOOOOOOOOOOO XXX%%%%%#    #%%%%%XXX OOOOOOOOOOOOOOOOOOoO",
"OOOOO.O.OoOOOOOOO.OO XXXX%%%###  ###%%%XXXX OOO  OOOOOOOOOOOOOOO",
"OOOoO.OooOOOOOOOOO.O XXXX$############$XXXX OOO $ OOOOOOOOOOOOOO",
"OOOOooOOOOOOOOOOoO.O XXX$$############$$XXX OOO $$ OOOOOOOOO.OOO",
"OOOOOOOOOOOOOOOOOooO @@@$##############$@@@ OO $$$ OOOOOOOO.OOOO",
"OOOOOOOOOOOOOO%OOOOO @@@$##############$@@@ O @@$$ oOOOOOOO.OoOO",
"OOOOOOOOOOOOO%+%OOOO @@@@$### #### ###$@@@@  @@@@ OOOOOOO.OooOOO",
"OOOOOOOOOOOOOO%OOOO  @@@@$$###    ###$$@@@@@@@@@ OOOOOOOOO.OOOOO",
"OOOOOOOOOOOOOOOOOO @@@@@@@@$$######$$@@@@@@@@@@ OOOOOOOOoO.OOOOO",
"OOOoOOOOO%OOOOOOO  @@@@@@@@@@@@@@@@@@@@@@@@ @@ OOOOOOOOOOooOOOOO",
"OOOOOOOO%+%OOO%O  @@@@@@@@@@@@@@@@@@@@@@@@@ @ OOOOOOOOOOOOOOOOOO",
"OOOOOOOOO%OOO%+  @@@ @@@@@@@@@@@@@@@@@@@@@@  OOOOOOOOOOOOOOOOOOO",
"OOOOOOOOOOOOOO% @@@@ @@@@@@@@@@@@@@@@@@@@@@ OOOOO%OOOOOOOOOOOOOO",
"OOOOOOOOOOOOOO $@@@@ @@@@@@$$$$$$$$$$@@@@@@ OOOO%+%OOOOOOOOOOOOO",
"OOOOOOOOOOOOO $$$@@  @@@@@$$$$$$$$$$$$@@@@@ OoOOO%OOOOOOOOOOOOOO",
"OOOOOOOOO.OOO $$$$ O @@@@$$$$$$$$$$$$$$@@@@ OOOOOOOOOOOOOOOOOoOO",
"OOOOOOOO.OOOO $$$$ O @@@$$$$$$$$$$$$$$$$@@@ OOOOOOOOOOOO%OOOOOOO",
"OOOOO.OO.OoOOO $$ OO @@@$$$$$$$$$$$$$$$$@@@ OOOOOOOOOOO%+%OOOOOO",
"OOOOOO.OooOOOOO  OOO @@@$$$$$$$$$$$$$$$$@@@ OOOO.OOOOOOO%OOOOOOO",
"OOOOoO.OOOOOOOOOoOOO  @@$$$$$$$$$$$$$$$$@@  OOO.OOOOOOOOOOOOOOOO",
"OOOOOooOOOOOOOOOOOOOO                      O.OO.OoOOOOOOOOOOOOOO",
"OOOOOOOOOOOoOOOOOOOOOOO% @@@@@ O% @@@@@ OOOOO.OooOOOOOOOOOOOOOOO",
"OOOOOOOOOOOOOOOOOOOOOO%+ @@@@@ OO @@@@@ OOOoO.OOOOOOOOOOOOOOOOOO",
"OOOOOOOOOOOOOOOOOOOOOOO% @@@@@ OO @@@@@ OOOOooOOOOOOOOOOOOO.OOOO",
"OOOOoOOOOOOOOOOOOOOOOOOO @@@@@ OO @@@@@ OOOOOOOOOOOOOOO.OO.OOOOO",
"OOOOOOOOOOOOOOOOOOOOOOOO $$$$$ OO $$$$$ OOOOOOOOOOOOOOOO.O.OoO%O",
"OOOOOOOOOoOOOOO%OOOOOOOO $$$$$ OO $$$$$ OOOOOOOOOOOOOOoO.OooO%+%",
"OOOOOOOOOOOOOO%+%OOOOOOO $$$$$ OO $$$$$ OOOOOOOOOOOO%OOooOOOOO%O",
"OOOOOOOOOOOOOOO%OOOOOOOO $$$$$ OO $$$$$ OOOOOOOOOOO%+%OOOOOOOOOO",
"OOOOOO.OOOOOOOOOOOOOOOOO $$$$$ OO $$$$$ OOOOOoOOOOOO%OOOOOOOOOOO",
"OOOOO.OO%OOOOOOOOOOOOOOO $$$$$ OO $$$$$ %OOOOOOOOOOOOOO%OOOOOOOO",
"OO.OO.O%+%OOOOOOOOOOoOOO       OO       +%OOOOOOOOOOOO%+%OOOOOOO",
"OOO.OooO%OOOOOOOOOOOOOOOOOOOOOOOOOO.OooO%OOOOOOOOOOOOOO%OOOO.OOO",
"OoO.OOOOOOOOOOOOOOOOOOOOOOOOOOOOOoO.OOOOOOOOOOOOOOOOOOOOOOOOO.OO",
"OOooOOOOOOOOOOOOoOOOOOOOOOOOOOOOOOooOOOOOOOOOOOOOoOOOOOOOOOoO.OO",
"OOOOOOOOOOOOOOOOOOOOOOOOOOOOOOOOOOOOOOOOOOOOOOOOOOOOOOOOOOOOooOO"
};
