/* XPM */
static char *de3a5b4ac440478da612a9d07c7068124YHJzPRufCAC5TOh[] = {
/* columns rows colors chars-per-pixel */
"64 64 8 1 ",
"  c black",
". c #083615",
"X c #13662B",
"o c #07912E",
"O c #69910A",
"+ c #78AB02",
"@ c #FFC20E",
"# c white",
/* pixels */
"+++++++++++++++++++++++++++++++++++++++++++++X+++++++++O++++++++",
"+++++++++++++++++++++++X+++++++++++++++++X++X+++++++++++++++++++",
"++X++++++++O+++++++X++X++++++O+++O++++++++X+X+O+++++++++++++X+++",
"+X++++++++++++++++++X+X+O+++++++++++++++O+X+OO+++++++++++++++X++",
"+X+O++++++++++++++O+X+OO+++++++ +++++++++OO++++++++++++++++O+X++",
"+OO+++#++++++++++++OO++++++++++ + ++++++++++++++++++++++#+++OO++",
"+++++#@#+++++#+++++++++++#+++o..o +++++++++++++++O+++++#@#++++++",
"++++++#+++++#@#+++++++++#@#..o..o..o++++++++++++++++++++#+++++++",
"+++++++++++++#+++++++++++ ...o..o..o.+#+++++++++++++++++++++++++",
"++++++++++++++X++++++++++ ..oo..o..o.  #++++++++++++++++++++++++",
"+++++++++++++X++++++++++o...o...o..o...+++++++++++++++++++++++++",
"++++O+++++X++X+++++++++.o...o...o..o..o.++++++#+++++++++++++++++",
"+++++++++++X+++++++#+++.o...o...o..o..o.+++++#@#++++++++++++X+++",
"+++++++++O+X++++++#@#+..o...o...o..o..o..+++++#+++++ ++++++X++++",
"++++++++++OO+++++++#++..o...o...o..o..o..+++++++++.. +++X++X+O++",
"+++++X++++++++++++++++..o.. o...o..o..o.  ++++++.......++X+OO+++",
"++++++X+++++++++++++++..o.. o..  ..o.  ..+++++++..o..o.O+X++++++",
"++++O+X++++++++++++++  .o...o...o..o..o..++++++...o..o..OO++++++",
"+++++OO+X++++O++++++++..o...o...o..o..o..+++++  ..o..oo  +++++++",
"+++++++X++++++++++++++..o...o...o..o..o..++++++...o...o.++++++++",
"+++++++X+O++++++++++++..o...o...o..o..o.  ++++O...o...o.++++++++",
"+++++++OO+++++++++++++..o. .o...o..o..o..++++++...o...o.++++++++",
"+++++++++++++++++++++  .o. .o...o...o.o..++++++...o...o.++++++++",
"+++++++++++++++++O++++..o...o...o.. o.o..++++++...o...o.++++O+++",
"+++++++++#++++++++++++..o...o...o.. o.o..++++++...o...o  +++++++",
"++++++++#@#+++++++++++..o...o...o...o.o..++#+++...o...o.++++++++",
"+++++++++#++++++++++++..o...o...o..o..o..+#@#++..oo..o..#+++++++",
"++++++++X++++++++++++X..o...o...o..o..o..++# ++..o...o..++++++++",
"++++X++X+++++ ++++ +X+..o...o...o..o..o..... ....o...o..++++++O+",
"+++++X+X+O... .... .....o..o. ..o..o..o........ooo...o..  ++++++",
"+++O+X+O.............oo.o..o. ..o..o..o..oooooo.....oo..++++++++",
"++++OO++......oooooooo..o...o...o..o..o............oo...++++X+++",
"+++++++....ooo..........o...o...o..o...o..........oo....+++X++++",
"+++++++...oo............o...o...o.o....o......ooooo.....+++X+O++",
"+++++++...o......ooooo..o...o...o.o....o.ooooo.........++X+OO+++",
"+++++++...o...ooo.......o...o...o.o....o...............+++X+++++",
"++++++  ..o..oo.........o. .o...o.o. ..o.............+++O+X+++++",
"+++O+++..oo..o..... ....o. .o...o. . ..o.+++++ ++ +++++++OO+++++",
"+++++++..o...o..+++ ++..o...o...o. ....o.+++++ ++ ++++++++++++++",
"+++++++..o...o..++++++..o...o...o.o....o.+++++++++++++++++++++++",
"++++++  .o..oo.  +++++..o...o...o.o....o.++++++++#++++++++++++++",
"+++++++..o..o...++++++..o...o...o.o....o  ++++++#@#+++++++++++++",
"+++++++..o..o...+++++O..o...o ..o.o....o.++++O+++#++++++++++++++",
"+++++++..o..o...  ++++..o...o ..o.o....o.++++++++++++++++++++O++",
"+++++++..o..o...++++++..o...o...o.o....o.+++++++++++++++#+++++++",
"+++++X+..o..o...++++++..o...o...o.o. ..o.++++++++++++++#@#++++++",
"++++++X+.o..o..++++++  .o...o...o.o. .o..+++++++X+++++++#+++++++",
"++++O+X+....o..+O+++++..o...o...o.o...o..++++++X++++++++++++++++",
"+++++OO+++. .+++++++++..o...o...o.o...o.  ++X++X+O++++++++++++++",
"+++++++++++ ++++++++++..o...o...o.o...o..++++X+OO+++++++++++++++",
"+++++++++++++++++++++  .o. .o...o.oo..o..++O+X++++++++++++++++++",
"++++++++++++++++++++++..o. .o...o..o..o..+++OO+++++++++++++X++++",
"++++O+++++++++++++++++..o...o. .o..o..o..++++++++++++++X++X+++++",
"++++++++++++++++++++++..o...o. .o..o..o.  ++++++++++++++X+X+O+#+",
"+++++++++O+++++#++++++..o...o...o..o..o..+++++++++++++O+X+OO+#@#",
"++++++++++++++#@#+++++..o...o...o..o..o..+++++++++++#++OO+++++#+",
"+++++++++++++++#++++++..o...o...o..o..oo.++++++++++#@#++++++++++",
"++++++X++++++++++++++  .o...o...o..o...o.++++O++++++#+++++++++++",
"+++++X++#+++++++++++++..o...o...o..o...o.++++++++++++++#++++++++",
"++X++X+#@#++++++++++O+..oo..o...o..o...o.#++++++++++++#@#+++++++",
"+++X+OO+#+++++++++++++...o..o...o..o...o  +++++++++++++#++++X+++",
"+O+X+++++++++++++++++  ..o..o...o..o...o.++++++++++++++++++++X++",
"++OO++++++++++++O+++++...o..o...o..o...o.++++++++O+++++++++O+X++",
"++++++++++++++++++++++...o..o...o..o...o.+++++++++++++++++++OO++"
};
