/* XPM */
static char *_e9f60ecbfa04b92adb81f84c2579aebD5Jz95HhI1lGrb0X[] = {
/* columns rows colors chars-per-pixel */
"64 64 20 1 ",
"  c black",
". c #13662B",
"X c #37547A",
"o c #FA5059",
"O c #69910A",
"+ c #78AB02",
"@ c #058074",
"# c #FFC20E",
"$ c #FFF200",
"% c #6F3198",
"& c #546D8E",
"* c #36B5AA",
"= c #F5E49C",
"- c #FFF9BC",
"; c #AFA5C4",
": c #B6A3D0",
"> c #B3A5D2",
", c #B4A3D4",
"< c #B5A5D5",
"1 c white",
/* pixels */
"+++++++++++++++++++++++++++++++++++++++++++++.+++++++++O++++++++",
"+++++++++++++++++++++++.+++++++++++++++++.++.+++++++++++++++++++",
"++.++++++++O+++++++.++.++++++O+++O++++++++.+.+O+++++++++++++.+++",
"+.++++++++++++++++++.+============================+++++++++++.++",
"+.+O++++++++++++++O+.------------------------------++++++++O+.++",
"+OO+++1++++++++++++O--------------------------------++++1+++OO++",
"+++++1#1+++++1+++++----------------------------------++1#1++++++",
"++++++1+++++1#1++++----------------------------------+++1+++++++",
"+++++++++++++1+++++@**@++1++++@**@++++1++++@**@+++@*@+++++++++++",
"++++++++++++++.+++@***@++++++@***@+++1#1+++@**@+++@*@+++++++++++",
"+++++++++++++.++++@***@++++++@***@++++1++++@**@+++@*@+++++++++++",
"++++O+++++.++.++++@***@++++++@***@+++++++++@**@+++@**@++++++++++",
"+++++++++++.+++++@****@++++++@***@++++++++@***@1++@**@++++++.+++",
"+++++++++O+.+++++@****@++++.@****@++++++++@***@+++@**@+++++.++++",
"++++++++++OO+++++@****@+++++@****@+++O++++@***@+++@**@++.++.+O++",
"+++++.+++++++++++@***@++++O+@***@+++++++++@***@+++@**@+++.+OO+++",
"++++++.+++++++++@****@+++++O@***@+++++++++@***@+++@***@O+.++++++",
"++++O+.+++++++++@***@+++++++@***@+++++++++@***@+++@***@+OO++++++",
"+++++OO+.++++O+@****@+O++++@****@+++1+++++@***@.++@***@+++++++++",
"+++++++.+++++++@****@++++++@****@++1#1++++@***@+.+@***@+++++++++",
"+++++++.+O+++++@****@++++++@***@++++1+++++@***@+.+@***@+++++++++",
"+++++++OO++++++@***@+++++++@***@++++++++++@***@OO+@***@+++++++++",
"+++++++++++++++@***@++++1++@***@++++++++++@***@+++@***@+++++++++",
"+++++++++++++++@***@+++1#1+@***@++++++++++@***@++++@**@+++++O+++",
"+++++++++1++++@***@+++++1+@****@+++++.++++@***@++++@**@+++++++++",
"++++++++1#1+++@***@+++++++@***@+++++.+++++@***@++O+@***@++++++++",
"+++++++++1++++@***@+++++++@***@+.+++.+O+++@***@++++@***@1+++++++",
"++++++++.++++@****@++.++++@***@++.++OO++++@***@++++@***@++++++++",
"++++.++.+++++@***@++.+++++@**@+O+.++++++++@***@++++@***@++++++O+",
"+++++.+.+O+++@***@++.+O+++@**@++OO++++++++@***@++++@***@++++++++",
"+++O+.+OO++++@***@.+OO+++@***@++++++++++++@***@++++@***@++++++++",
"++++OO+++++++@**@+.++++++@**@+++++++++++++@***@++++@***@++++.+++",
"++++++++++++@***@OO++++++@**@+++++++++++++@***@++++@***@+++.++++",
"++++++++++++@***@+++++++@@**@++++++++++++.@***@++++@***@+++.+O++",
"++++++++++++@***@+++++++@***@+++++++++++.+@***@++++@***@+.+OO+++",
"++++++++++++@***@++XXXXX@***@XXXXXXXXXXXXX@***@XX%%%%%%%++.+++++",
"++++++++++%%%***%%%&&&&&@**@&&&&&&&&&&&&&&&&&&&%%<<<<<<%O+.+++++",
"+++O++++%%<,,,,,:,<%%<&&@**@&&&&&&&&&&&&&&&&%%%<<<<<<<<%+OO+++++",
"+++++++%<,<<<<<<<<<<<<%%%%%@&&&&&&&&&&%%%%%%%<<<<<<<<<<%++++++++",
"++++++%<,<<<<<<<<<<<<<<<<<%%%%%%%%%%%%<<<<<<%<<<<<<<<<<%++++++++",
"++++++%<<<<<<<<<<<<<<<<<<<%<<<<<<<<<<<<<<<<<%<<<<<<<<<<%++++++++",
"++++++%<<<<<<<<<<<<<<<<<<<%<<<<<<<<<<<<<<<<<%<<<<<<<<<<%++++++++",
"++++++%<<<<<<<<<<<<<<<<<<%<<<<<<<<<<<<<<<<<<%<<<<<<<<<<%++++++++",
"++++++$$$<<<<<<<<<<<<<<<<%<<<<<<<<<<<<<<<<<<%<<<<<<<<<<%+++++O++",
"++++++$$$$<<<<<<<<<<<<<<%<<<<<<<<<<<<<<<%%%<%<<<<<<<<<<%1+++++++",
"+++++.$$$<<<<<<<<<<$$$<<%<<<<<<<<<<<<<<%%<%<%,,<<<<<<<<%#1++++++",
"++++++%<<<<<<<<<<<$$$$$<%<<<<<<<<<<<<<<<<<<<%%<<<<<<<<<%1+++++++",
"++++O+%<<<<<<<<<<<<$$$<<%<<<<<<<<<<<<<<<<<<<<%<<<<<<<<%+++++++++",
"+++++OO%<<<<<<<<<<<<<<<<<%<<<<<<<<<<<<<<<<<<<%<<   <<<%+++++++++",
"+++++++%<<<<<<<<<<<<<<<<<%<<   <<<<<<<<<<<<<<<       <%+++++++++",
"++++++++%<<<<<<<<<<<<<<<<<       <<<<<<<<<<<<<       <%+++++++++",
"+++++++++%<<<<<<<<<<<<<<<<       <<<<<<<<<<<<   ---   %++++.++++",
"++++O+++++%%<<<<<<<<<<<<<   ---   <<<<<<<<<>;   -o-   +.++.+++++",
"++++++++++++%%%%%%%%%%%%%   -o-   %%%%%%%%%%%   ---   ++.+.+O+1+",
"+++++++++O++++       ++++   ---   ++++++++++++       +O+.+OO+1#1",
"++++++++++++++1     ++++++       +++++++++++++       ++OO+++++1+",
"+++++++++++++++1  +++++++.       +++++++++++++++   1#1++++++++++",
"++++++.+++++++++++++++++++.+   +++++++.++++++O++++++1+++++++++++",
"+++++.++1+++++++++++++++O+.++++++++++.++1++++++++++++++1++++++++",
"++.++.+1#1++++++++++O++++OO+++++++.++.+1#1++++++++++++1#1+++++++",
"+++.+OO+1++++++++++++++++++++++++++.+OO+1++++++++++++++1++++.+++",
"+O+.+++++++++++++++++++++++++++++O+.+++++++++++++++++++++++++.++",
"++OO++++++++++++O+++++++++++++++++OO+++++++++++++O+++++++++O+.++",
"++++++++++++++++++++++++++++++++++++++++++++++++++++++++++++OO++"
};
