/* XPM */
static char *_771abd519e54353b5ec97788dad8fe9EIUwd7pduMHpdeT7[] = {
/* columns rows colors chars-per-pixel */
"64 64 23 1 ",
"  c black",
". c #13662B",
"X c #37547A",
"o c #B0630A",
"O c #FA5059",
"+ c #69910A",
"@ c #78AB02",
"# c #058074",
"$ c #FFC20E",
"% c #FFF200",
"& c #C98F4C",
"* c #F0BA7D",
"= c #6F3198",
"- c #546D8E",
"; c #36B5AA",
": c #F5E49C",
"> c #FFF9BC",
", c #AFA5C4",
"< c #B6A3D0",
"1 c #B3A5D2",
"2 c #B4A3D4",
"3 c #B5A5D5",
"4 c white",
/* pixels */
"@@@@@@@@@@@@@@@@@@@@@@@@@@@@@@@@@@@@@@@@@@@@@.@@@@@@@@@+@@@@@@@@",
"@@@@@@@@@@@@@@@@@@@@@@@.@@@@@@@@@@@@@@@@@.@@.@@@@@@@@@@@@@@@@@@@",
"@@.@@@@@@@@+@@@@@@@.@@.@@@@@@+@@@+@@@@@@@@.@.@+@@@@@@@@@@@@@.@@@",
"@.@@@@@@@@@@@@@@@@@@.@::::::::::::::::::::::::::::@@@@@@@@@@@.@@",
"@.@+@@@@@@@@@@@@@@+@.>>>>>>>>>>>>>>>>>>>>>>>>>>>>>>@@@@@@@@+@.@@",
"@++@@@4@@@@@@@@@@@@+>>>>>>>>>>>>>>>>>>>>>>>>>>>>>>>>@@@@4@@@++@@",
"@@@@@4$4@@@@@4@@@@@>>>>>>>>>>>>>>>>>>>>>>>>>>>>>>>>>>@@4$4@@@@@@",
"@@@@@@4@@@@@4$4@@@@>>>>>>>>>>>>>>>>>>>>>>>>>>>>>>>>>>@@@4@@@@@@@",
"@@@@@@@@@@@@@4@@@@@#;;#@@4@@@@#;;#@@@@4@@@@#;;#@@@#;#@@@@@@@@@@@",
"@@@@@@@@@@@@@@.@@@#;;;#@@@@@@#;;;#@@@4$4@@@#;;#@@@#;#@@@@@@@@@@@",
"@@@@@@@@@@@@@.@@@@#;;;#@@@@@@#;;;#@@@@4@@@@#;;#@@@#;#@@@@@@@@@@@",
"@@@@+@@@@@.@@.@@@@#;;;#@@@@@@#;;;#@@@@@@@@@#;;#@@@#;;#@@@@@@@@@@",
"@@@@@@@@@@@.@@@@@#;;;;#@@@@@@#;;;#@@@@@@@@#;;;#4@@#;;#@@@@@@.@@@",
"@@@@@@@@@+@.@@@@@#;;;;#@@@@.#;;;;#@@@@@@@@#;;;#@@@#;;#@@@@@.@@@@",
"@@@@@@@@@@++@@@@@#;;;;#@@@@@#;;;;#@@@+@@@@#;;;#@@@#;;#@@.@@.@+@@",
"@@@@@.@@@@@@@@@@@#;;;#@@@@+@#;;;#@@@@@@@@@#;;;#@@@#;;#@@@.@++@@@",
"@@@@@@.@@@@@@@@@#;;;;#@@@@@+#;;;#  @@@@  @#;;;#@@@#;;;#+@.@@@@@@",
"@@@@+@.@@@@@@@@@#;;;#@@@@@@@#;;;# o @@@ o #;;;#@@@#;;;#@++@@@@@@",
"@@@@@++@.@@@@+@#;;;;#@+@@@@#;;;;# >o @@ >o ;;;#.@@#;;;#@@@@@@@@@",
"@@@@@@@.@@@@@@@#;;;;#@@@@@@#;;;;# >>o @ >>o ;;#@.@#;;;#@@@@@@@@@",
"@@@@@@@.@+@@@@@#;;;;#@@@@@@#;;;#             ;#@.@#;;;#@@@@@@@@@",
"@@@@@@@++@@@@@@#;;;#@@@@@@@#;;;# 4 ooo 4 ooo ;#++@#;;;#@@@@@@@@@",
"@@@@@@@@@@@@@@@#;;;#@@@@4@@#;;;# 44 o 444 oo ;#@@@#;;;#@@@@@@@@@",
"@@@@@@@@@@@@@@@#;;;#@@@4$4@#;;;# 4  o  444oo ;#@@@@#;;#@@@@@+@@@",
"@@@@@@@@@4@@@@#;;;#@@@@@4@#;;;;# 4  o  444oo ;#@@@@#;;#@@@@@@@@@",
"@@@@@@@@4$4@@@#;;;#@@@@@@@#;;;#     o  444oo ;#@@+@#;;;#@@@@@@@@",
"@@@@@@@@@4@@@@#;;;#@@@@@@@#;;;#   >>>> 44ooo ;#@@@@#;;;#4@@@@@@@",
"@@@@@@@@.@@@@#;;;;#@@.@@@@#;;;#  >>>>>>ooooo ;#@@@@#;;;#@@@@@@@@",
"@@@@.@@.@@@@@#;;;#@@.@@@@@#;;#@ >>>>>>>>oooo ;#@@@@#;;;#@@@@@@+@",
"@@@@@.@.@+@@@#;;;#@@.@+@@@#;;#@ >>>>>> >&&&& ;# @@@#;;;#@@@@@@@@",
"@@@+@.@++@@@@#;;;#.@++@@@#;;;#@@      >&&&&& ;  @@@#;;;#@@@@@@@@",
"@@@@++@@@@@@@#;;#@.@@@@@@#;;#@@@ && >>&&&&&& ; o @@#;;;#@@@@.@@@",
"@@@@@@@@@@@@#;;;#++@@@@@@#;;#@@@ &&&&&&&&&&& ; o @@#;;;#@@@.@@@@",
"@@@@@@@@@@@@#;;;#@@@@@@@##;;#@@@ &&&&&&&&&&&  &o @@#;;;#@@@.@+@@",
"@@@@@@@@@@@@#;;;#@@@@@@@#;;;#@@@ &&*****&&&& &&& @@#;;;#@.@++@@@",
"@@@@@@@@@@@@#;;;#@@XXXXX#;;;#XXX &*******&&& && X=======@@.@@@@@",
"@@@@@@@@@@===;;;===-----#;;#---- &*******&&&   ==333333=+@.@@@@@",
"@@@+@@@@==322222<23==3--#;;#---- &*******&&&===33333333=@++@@@@@",
"@@@@@@@=32333333333333=====#---- &****=======3333333333=@@@@@@@@",
"@@@@@@=3233333333333333333============333333=3333333333=@@@@@@@@",
"@@@@@@=3333333333333333333=33333333333333333=3333333333=@@@@@@@@",
"@@@@@@=3333333333333333333=33333333333333333=3333333333=@@@@@@@@",
"@@@@@@=333333333333333333=333333333333333333=3333333333=@@@@@@@@",
"@@@@@@%%%3333333333333333=333333333333333333=3333333333=@@@@@+@@",
"@@@@@@%%%%33333333333333=333333333333333===3=3333333333=4@@@@@@@",
"@@@@@.%%%3333333333%%%33=33333333333333==3=3=2233333333=$4@@@@@@",
"@@@@@@=33333333333%%%%%3=3333333333333333333==333333333=4@@@@@@@",
"@@@@+@=333333333333%%%33=33333333333333333333=33333333=@@@@@@@@@",
"@@@@@++=33333333333333333=3333333333333333333=33   333=@@@@@@@@@",
"@@@@@@@=33333333333333333=33   333333333333333       3=@@@@@@@@@",
"@@@@@@@@=33333333333333333       3333333333333       3=@@@@@@@@@",
"@@@@@@@@@=3333333333333333       333333333333   >>>   =@@@@.@@@@",
"@@@@+@@@@@==3333333333333   >>>   3333333331,   >O>   @.@@.@@@@@",
"@@@@@@@@@@@@=============   >O>   ===========   >>>   @@.@.@+@4@",
"@@@@@@@@@+@@@@       @@@@   >>>   @@@@@@@@@@@@       @+@.@++@4$4",
"@@@@@@@@@@@@@@4     @@@@@@       @@@@@@@@@@@@@       @@++@@@@@4@",
"@@@@@@@@@@@@@@@4  @@@@@@@.       @@@@@@@@@@@@@@@   4$4@@@@@@@@@@",
"@@@@@@.@@@@@@@@@@@@@@@@@@@.@   @@@@@@@.@@@@@@+@@@@@@4@@@@@@@@@@@",
"@@@@@.@@4@@@@@@@@@@@@@@@+@.@@@@@@@@@@.@@4@@@@@@@@@@@@@@4@@@@@@@@",
"@@.@@.@4$4@@@@@@@@@@+@@@@++@@@@@@@.@@.@4$4@@@@@@@@@@@@4$4@@@@@@@",
"@@@.@++@4@@@@@@@@@@@@@@@@@@@@@@@@@@.@++@4@@@@@@@@@@@@@@4@@@@.@@@",
"@+@.@@@@@@@@@@@@@@@@@@@@@@@@@@@@@+@.@@@@@@@@@@@@@@@@@@@@@@@@@.@@",
"@@++@@@@@@@@@@@@+@@@@@@@@@@@@@@@@@++@@@@@@@@@@@@@+@@@@@@@@@+@.@@",
"@@@@@@@@@@@@@@@@@@@@@@@@@@@@@@@@@@@@@@@@@@@@@@@@@@@@@@@@@@@@++@@"
};
