/* XPM */
static char *_b331be596784d1c93d2432fdc8b276ehL2NeKyz8yl4IWDH[] = {
/* columns rows colors chars-per-pixel */
"64 64 5 1 ",
"  c #13662B",
". c #69910A",
"X c #78AB02",
"o c #FFC20E",
"O c white",
/* pixels */
"XXXXXXXXXXXXXXXXXXXXXXXXXXXXXXXXXXXXXXXXXXXXX XXXXXXXXX.XXXXXXXX",
"XXXXXXXXXXXXXXXXXXXXXXX XXXXXXXXXXXXXXXXX XX XXXXXXXXXXXXXXXXXXX",
"XX XXXXXXXX.XXXXXXX XX XXXXXX.XXX.XXXXXXXX X X.XXXXXXXXXXXXX XXX",
"X XXXXXXXXXXXXXXXXXX X X.XXXXXXXXXXXXXXX.X X..XXXXXXXXXXXXXXX XX",
"X X.XXXXXXXXXXXXXX.X X..XXXXXXXXXXXXXXXXX..XXXXXXXXXXXXXXXX.X XX",
"X..XXXOXXXXXXXXXXXX..XXXXXXXXXXXXXXXXXXXXXXXXXXXXXXXXXXXOXXX..XX",
"XXXXXOoOXXXXXOXXXXXXXXXXXOXXXXXXXXXXXXXXXXXXXXXXX.XXXXXOoOXXXXXX",
"XXXXXXOXXXXXOoOXXXXXXXXXOoOXXXXXXXXXXXXXXXXXXXXXXXXXXXXXOXXXXXXX",
"XXXXXXXXXXXXXOXXXXXXXXXXXOXXXXXXXXXXXXOXXXXXXXXXXXXXXXXXXXXXXXXX",
"XXXXXXXXXXXXXX XXXXXXXXXXXXXXXXXXXXXXOoOXXXXXXXXXXXXXXXXXXXXXXXX",
"XXXXXXXXXXXXX XXXXXXXXXXXXXXXXXXXXXXXXOXXXXXXXXXXXXXXXXXXXXXXXXX",
"XXXX.XXXXX XX XXXXXXXXXXXXXXXXX XXXXXXXXXXXXXXOXXXXXXXXXXXXXXXXX",
"XXXXXXXXXXX XXXXXXXOXXXXXXXXXX XXXXXXXXXXXXXXOoOXXXXXXXXXXXX XXX",
"XXXXXXXXX.X XXXXXXOoOXXXXXX XX X.XXXXXXXXXXXXXOXXXXXXXXXXXX XXXX",
"XXXXXXXXXX..XXXXXXXOXXXXXXXX X..XXXXX.XXXXXXXXXXXXXXXXXX XX X.XX",
"XXXXX XXXXXXXXXXXXXXXXXXXX.X XXXXXXXXXXXXXXXXXXXXXXXXXXXX X..XXX",
"XXXXXX XXXXXXXXXXXXXXXXXXXX..XXXXXXXXXXXXXXXXXXXXXX XXX.X XXXXXX",
"XXXX.X XXXXXXXXXXXXXXXXXXXXXXXXXXXXXXXXXXXXXXXXXXX XXXXX..XXXXXX",
"XXXXX..X XXXX.XXXXXXXX.XXXXXXXXXXXXXOXXXXXXXXXX XX X.XXXXXXXXXXX",
"XXXXXXX XXXXXXXXXXXXXXXXXXXXXXXXXXXOoOXXXXXXXXXX X..XXXXXXXXXXXX",
"XXXXXXX X.XXXXXXXXXXXXXXXXXXXXXXXXXXOXXXXXXXXX.X XXXXXXXXXXXXXXX",
"XXXXXXX..XXXXXXXXXXXXXXXXXXXXXXXXXXXXXXXXXXXXXX..XXXXXXXXXXXXXXX",
"XXXXXXXXXXXXXXXXXXXXXXXXOXXXXXXXXXXXXXXXXXXXXXXXXXXXXXXXXXXXXXXX",
"XXXXXXXXXXXXXXXXX.XXXXXOoOXXXXXXXXXXXXXXXXXXXXXXXXXXXXXXXXXX.XXX",
"XXXXXXXXXOXXXXXXXXXXXXXXOXXXXXXXXXXXX XXXXXXXXXXXXXXXXXXXXXXXXXX",
"XXXXXXXXOoOXXXXXXXXXXXXXXXXXXXXXXXXX XXXXXXOXXXXX.XXXXXOXXXXXXXX",
"XXXXXXXXXOXXXXXXXXXXXXXXXXXXXXXX XXX X.XXXOoOXXXXXXXXXOoOXXXXXXX",
"XXXXXXXX XXXXXXXXXXXX XXXXXXXXXXX XX..XXXXXOXXXXXXXXXXXOXXXXXXXX",
"XXXX XX XXXXXXXXXXXX XXXXXXXXXX.X XXXXXXXXXXXXXXXXXXXXXXXXXXXX.X",
"XXXXX X X.XXXXXXX XX X.XXXXXXXXX..XXXXXXXXXXXXXXXXXXXXXXXXXXXXXX",
"XXX.X X..XXXXXXXXX X..XXXXXXXXXXXXXXXXXXXXXXXXXXXXXXXXXXXXXXXXXX",
"XXXX..XXXXXXXXXX.X XXXXXXXXXXXXXXXXXXXXXXXXXXXXXXXXXXXXXXXXX XXX",
"XXXXXXXXXXXXXXXXX..XXXXXXXXOXXXXXXXXXXXXXXXXXXXXXXXXXXXXXXX XXXX",
"XXXXXXXXXXXXXXOXXXXXXXXXXXOoOXXXXXXXXXXXX XXXXXXXXX.XXXXXXX X.XX",
"XXXXXXXXXXXXXOoOXXXXXXXXXXXOXXXXXXXXXXXX XXXXXXXXXXXXXXXX X..XXX",
"XXXXXXXXXXXXXXOXXXXXXXXXXXXXXXXX.XXXX XX X.XXXXX.XXXXXXXXX XXXXX",
"XXXXXXXXXXXXXXXXXXXXXXXXXXXXXXXXXXXXXX X..XXXXXXXXXXXXXX.X XXXXX",
"XXX.XXXXXOXXXXXXXXXXXXXXXXXXXXXXXXXX.X XXXXXXXXXXXXXXXXXX..XXXXX",
"XXXXXXXXOoOXXXOXXXXXXXXXXX XXXXXXXXXX..XXXXXXXXXXXXXXXXXXXXXXXXX",
"XXXXXXXXXOXXXOoOXXXXXXXXX XXXXXXXXXXXXXXXXXXXXXXXXXXXXXXXXXXXXXX",
"XXXXXXXXXXXXXXOXXXXXXX XX X.XXXXXXXXXXXXXXXXXXXXXOXXXXXXXXXXXXXX",
"XXXXXXXXXXXXXXXXXXXXXXX X..XXXXXXXXXXXOXXXXXXXXXOoOXXXXXXXXXXXXX",
"XXXXXXXXXXXXXXXXXXXXX.X XXXXXXXXXXXXXOoOXXXXX.XXXOXXXXXXXXXXXXXX",
"XXXXXXXXX XXXXXXXXXXXX..XXXXXXXXXXXXXXOXXXXXXXXXXXXXXXXXXXXXX.XX",
"XXXXXXXX XXXXXXXXXXXXXXXXXXXXXXXXXXXXXXXXXXXXXXXXXXXXXXXOXXXXXXX",
"XXXXX XX X.XXXXXXXXXXXXXXXXXXXXXXXXXXXXXXXXXXXXXXXXXXXXOoOXXXXXX",
"XXXXXX X..XXXXXXXXXXXXXXXXXXX.XXXXXXXXXXXXXXXXXX XXXXXXXOXXXXXXX",
"XXXX.X XXXXXXXXX.XXXXXXXXXXXXXXXOXXXXXXXXXXXXXX XXXXXXXXXXXXXXXX",
"XXXXX..XXXXXXXXXXXXXXXXXXXXXXXXOoOXXXXXXXXXX XX X.XXXXXXXXXXXXXX",
"XXXXXXXXXXX.XXXXXXXXXXXOXXXXXXXXOXXXXXXXXXXXX X..XXXXXXXXXXXXXXX",
"XXXXXXXXXXXXXXXXXXXXXXOoOXXXXXXXXXXXXXXXXXX.X XXXXXXXXXXXXXXXXXX",
"XXXXXXXXXXXXXXXXXXXXXXXOXXXXXXXXXXXXXXOXXXXX..XXXXXXXXXXXXX XXXX",
"XXXX.XXXXXXXXXXXXXXXXXXXXXXXXXXXXXXXXOoOXXXXXXXXXXXXXXX XX XXXXX",
"XXXXXXXXXXXXXXXXXXXXXXXXXXXXXXXXXXXXXXOXXXXXXXXXXXXXXXXX X X.XOX",
"XXXXXXXXX.XXXXXOXXXXXXXXXXXXX XXXXXXXXXXXXXXXXXXXXXXXX.X X..XOoO",
"XXXXXXXXXXXXXXOoOXXXXXXXXXXX XXXXXXXXXXXXXXXXXXXXXXXOXX..XXXXXOX",
"XXXXXXXXXXXXXXXOXXXXXXXXX XX X.XXXXXXXXXXXXXXXXXXXXOoOXXXXXXXXXX",
"XXXXXX XXXXXXXXXXXXXXXXXXX X..XXXXXXXX XXXXXX.XXXXXXOXXXXXXXXXXX",
"XXXXX XXOXXXXXXXXXXXXXXX.X XXXXXXXXXX XXOXXXXXXXXXXXXXXOXXXXXXXX",
"XX XX XOoOXXXXXXXXXX.XXXX..XXXXXXX XX XOoOXXXXXXXXXXXXOoOXXXXXXX",
"XXX X..XOXXXXXXXXXXXXXXXXXXXXXXXXXX X..XOXXXXXXXXXXXXXXOXXXX XXX",
"X.X XXXXXXXXXXXXXXXXXXXXXXXXXXXXX.X XXXXXXXXXXXXXXXXXXXXXXXXX XX",
"XX..XXXXXXXXXXXX.XXXXXXXXXXXXXXXXX..XXXXXXXXXXXXX.XXXXXXXXX.X XX",
"XXXXXXXXXXXXXXXXXXXXXXXXXXXXXXXXXXXXXXXXXXXXXXXXXXXXXXXXXXXX..XX"
};
