/* XPM */
static char *_25a9bc5119142908eb0c692c8678c3eEjdVyeh2nq5yEf2c[] = {
/* columns rows colors chars-per-pixel */
"64 64 10 1 ",
"  c #083615",
". c #743E25",
"X c #13662B",
"o c #9C5A3C",
"O c #07912E",
"+ c #69910A",
"@ c #78AB02",
"# c #A8E61D",
"$ c #FFC20E",
"% c white",
/* pixels */
"@@@@@@@@@@@@@@@@@@@@@@@@@@@@        @@@@@@@@@@@@@@@@@@@@@@@@@@@@",
"@@@@@@@@@@@@@@@@@@@@@@@@@@@@        @@@@@@@@@@@@@@@@@@@@@@@@@@@@",
"@@@@@@@@@@+@@@@@@@@@@@@@@@@@        @@@@@@@+@@@@@@@@X@@@@@@@@@@@",
"@@@@%@@@@@@@@@@@+@@@@@@@@@@@        @@@@@@@@@@@@X@@X@@@@@%@@@+@@",
"@@@%$%@@@@@@@@@@@@@@        ########        @@@@@X@X@+@@%$%@@@@@",
"@@@@%@@@@@@@@@@@@@@@        ########        @@@+@X@++@@@@%@@@@@@",
"@@@@@@@@@@X@@@@@@@@@        ########        @@@@++@@@@@@@@@@@@@@",
"@+@@@X@@@X@@@@@@@@@@        ########        @@@@@@@@@@@@@@@@@@@@",
"@@@@@@X@@X@+@@@@    ########################    @@@@@@@@@@@X@@@@",
"@@@@+@X@@++@@@@@    ########################    @@@@@@@X@@X@@@@@",
"@@@@@++@@@@@@@@@    ########################    @@@@@@@@X@X@+@@@",
"@@@@@@@@@@@@@@@@    ########################    @@@@@@+@X@++@@@@",
"@@@@@@@@@@@@    XXXX############XXXX########XXXX    @@@++@@@@@@@",
"@@@%@@@@@@@@    XXXX############XXXX########XXXX    @@@@@@@@@@@@",
"@@%$%@@@@@@@    XXXX############XXXX########XXXX    @@@@@@@@@@@@",
"@@@%@@@@@@@@    XXXX############XXXX########XXXX    @@@@@@@%@@@+",
"@@@@@@@@    ################XXXX########XXXX########    @@%$%@@@",
"@@@@@@@@    ################XXXX########XXXX########    @@@%@@@@",
"@@@@@@+@    ################XXXX########XXXX########    @@@@@@@@",
"@@@@@@@@    ################XXXX########XXXX########    @@@@@@@@",
"@X@@@@@@    ########XXXXXXXXXXXX########XXXX########    @@@@@@@@",
"@@X@@@@@    ########XXXXXXXXXXXX########XXXX########    @@@@@@X@",
"+@X@@@@@    ########XXXXXXXXXXXX########XXXX########    @@@@@X@@",
"@++@@@@@    ########XXXXXXXXXXXX########XXXX########    @@@@@X@+",
"@@@@    ########XXXX########OOOOXXXXXXXX########XXXX####    @++@",
"@@@@    ########XXXX########OOOOXXXXXXXX########XXXX####    @@@@",
"@@@@    ########XXXX########OOOOXXXXXXXX########XXXX####    @@@@",
"@@@@    ########XXXX########OOOOXXXXXXXX########XXXX####    @@@@",
"    XXXX########OOOOOOOO############XXXX########XXXXXXXX####    ",
"    XXXX########OOOOOOOO############XXXX########XXXXXXXX####    ",
"    XXXX########OOOOOOOO############XXXX########XXXXXXXX####    ",
"    XXXX########OOOOOOOO############XXXX########XXXXXXXX####    ",
"    ####XXXXXXXX####XXXXXXXXOOOOOOOOXXXXXXXXXXXX####OOOOXXXX    ",
"    ####XXXXXXXX####XXXXXXXXOOOOOOOOXXXXXXXXXXXX####OOOOXXXX    ",
"    ####XXXXXXXX####XXXXXXXXOOOOOOOOXXXXXXXXXXXX####OOOOXXXX    ",
"    ####XXXXXXXX####XXXXXXXXOOOOOOOOXXXXXXXXXXXX####OOOOXXXX    ",
"    XXXXOOOOOOOOXXXXXXXXOOOOXXXXXXXX####XXXXOOOOOOOOXXXX        ",
"    XXXXOOOOOOOOXXXXXXXXOOOOXXXXXXXX####XXXXOOOOOOOOXXXX        ",
"    XXXXOOOOOOOOXXXXXXXXOOOOXXXXXXXX####XXXXOOOOOOOOXXXX        ",
"    XXXXOOOOOOOOXXXXXXXXOOOOXXXXXXXX####XXXXOOOOOOOOXXXX        ",
"        XXXXXXXX        XXXXXXXX        XXXXXXXXXXXX            ",
"        XXXXXXXX        XXXXXXXX        XXXXXXXXXXXX            ",
"        XXXXXXXX        XXXXXXXX        XXXXXXXXXXXX            ",
"        XXXXXXXX        XXXXXXXX        XXXXXXXXXXXX            ",
"@@@@        XXXXXXXX                                        @@@@",
"@@@@        XXXXXXXX                                        @@@@",
"@@@@        XXXXXXXX                                        @@+@",
"@@@@        XXXXXXXX                                        @@@@",
"@@@@@@@@                                                @@@@@@@@",
"@@@@@@@@                                                @@@@@@@@",
"@+@@@@@@                                                @@@@@+@@",
"@@@@@@@@                                                @@@@@@@@",
"@@@@@@@@@@@@                                        @@@@@@@@@@@@",
"@@@@@@@@+@@@                                        @@+@@@@@@@@@",
"@@@@@@@@@@@@                                        @@@@@%@@@@@@",
"@@@@%@@@@@@@                                        @@@@%$%@@@@@",
"@@@%$%@@@@@+@@@@@@@@........oooooooooooo....@@@@@@@@@@@@@%@@@@@@",
"@@@@%@@@@@@@@@@@@@@@........oooooooooooo....@@@@@@@@@@@@@@@@X@%@",
"@@@@@@X@@@%@@@@@@@@@........oooooooooooo....@@@@@@@%@@@@X@@X@%$%",
"@@X@@X@@@%$%@@@@@@@@........oooooooooooo....@@@@@@%$%@@@@X@X@+%@",
"@@@X@X@+@@%@@@@@....oooo....oooo....oooooooo....@@@%@@@+@X@++@@@",
"@+@X@++@@@@@@@@@....oooo....oooo....oooooooo....@@@@@@@@++@@@@@@",
"@@++@@@@@@@@@@@@....oooo....oooo....oooooooo....@@@@@+@@@@@@@@+@",
"@@@@@@@@@@@@+@@@....oooo....oooo....oooooooo....@@@@@@@@@@@@@@@@"
};
