/* XPM */
static char *_4b28c96a1fe48ade740f010abcc29bblf7Fy9u9pR5wTpmk[] = {
/* columns rows colors chars-per-pixel */
"64 64 25 1 ",
"  c black",
". c #13662B",
"X c #37547A",
"o c #464646",
"O c #B0630A",
"+ c #FA5059",
"@ c #69910A",
"# c #78AB02",
"$ c #058074",
"% c #FFC20E",
"& c #FFF200",
"* c #C98F4C",
"= c #F0BA7D",
"- c #6F3198",
"; c #36B5AA",
": c #00B7EF",
"> c #F5E49C",
", c #FFF9BC",
"< c #AFA5C4",
"1 c #B6A3D0",
"2 c #B3A5D2",
"3 c #B4A3D4",
"4 c #B5A5D5",
"5 c #99D9EA",
"6 c white",
/* pixels */
"#############################################.#########@########",
"#######################.#################.##.###################",
"##.########@#######.##.######@###@########.#.#@#############.###",
"#.##################.#>>>>>>>>>>>>>>>>>>>>>>>>>>>>###########.##",
"#.#@##############@#.,,,,,,,,,,,,,,,,,,,,,,,,,,,,,,########@#.##",
"#@@###6############@,,,,,,,,,,,,,,,,,,,,,,,,,,,,,,,,####6###@@##",
"#####6%6#####6#####,,,,,,,,,,,,,,,,,,,,,,,,,,,,,,,,,,##6%6######",
"######6#####6%6####,,,,,,,,,,,,,,,,,,,,,,,,,,,,,,,,,,###6#######",
"#############6#####$;;$##6####$;;$####6####$;;$###$;$###########",
"##############.###$;;;$######$;;;$###6%6###$;;$###$;$###########",
"#############.####$;;;$######$;;;$####6####$;;$###$;$###########",
"####@#####.##.####$;;;$######$;;;$#########$;;$###$;;$##########",
"###########.#####$;;;;$######$;;;$########$;;;$6##$;;$######.###",
"#########@#.#####$;;;;$####.$;;;;$########$;;;$###$;;$#####.####",
"##########@@#####$;  ;$###  $;;;;$###@####$;;;$###$;;$##.##.#@##",
"#####.###########$; o  ### o$;;;$#########$;;;$###$;;$###.#@@###",
"######.#########$;; ,oo ## o$;;;$  ####  #$;;;$###$;;;$@#.######",
"####@#.#########$;; ,,o ## ,$;;;$ O ### O $;;;$###$;;;$#@@######",
"#####@@#.####@#$;;; ,,,o # ,;;;;$ ,O ## ,O ;;;$.##$;;;$#########",
"#######.#######$;;          ;;;;$ ,,O # ,,O ;;$#.#$;;;$#########",
"#######.#@#####$;; 6 :::: 6 ;;;$             ;$#.#$;;;$#########",
"#######@@######$;; 66  : 666;;;$ 6 OOO 6 OOO ;$@@#$;;;$#########",
"###############$;; 66  : 66$;;;$ 66 O 666 OO ;$###$;;;$#########",
"###############$;; 6   :  6$;;;$ 6  O  666OO ;$####$;;$#####@###",
"#########6####$;;; 6   :  6;;;;$ 6  O  666OO ;$####$;;$#########",
"########6%6###$;;      :  6;;;$     O  666OO ;$##@#$;;;$########",
"#########6####$;;   ,,,,, 6;;;$   ,,,, 66OOO ;$####$;;;$6#######",
"########.####$;;;  ,,,,,, $;;;$  ,,,,,,OOOOO ;$####$;;;$########",
"####.##.#####$;;; ,,,,,,,,$;;$: ,,,,,,,,OOOO ;$####$;;;$######@#",
"#####.#.#@###$;;; ,,,,,,,,$;;$::,,,,,, ,**** ;$ ###$;;;$########",
"###@#.#@@####$;;; ,,,,,,,$;;;$::      ,***** ;  ###$;;;$########",
"####@@#######$;;$# ,,,,, $;;$::: ** ,,****** ; O ##$;;;$####.###",
"############$;;;$@       $;;$555 *********** ; O ##$;;;$###.####",
"############$;;;$# 55 ,,$$;;$555 ***********  *O ##$;;;$###.#@##",
"############$;;;$# 55555$;;;$555 **=====**** *** ##$;;;$#.#@@###",
"############$;;;$# 55555$;;;$555 *=======*** ** X-------##.#####",
"##########---;;;---55555$;;$5555 *=======***   --444444-@#.#####",
"###@####--433333134---55$;;$5555 *=======***---44444444-#@@#####",
"#######-43444444444444-----$5555 *====-------4444444444-########",
"######-4344444444444444444------------444444-4444444444-########",
"######-4444444444444444444-44444444444444444-4444444444-########",
"######-4444444444444444444-44444444444444444-4444444444-########",
"######-444444444444444444-444444444444444444-4444444444-########",
"######&&&4444444444444444-444444444444444444-4444444444-#####@##",
"######&&&&44444444444444-444444444444444---4-4444444444-6#######",
"#####.&&&4444444444&&&44-44444444444444--4-4-3344444444-%6######",
"######-44444444444&&&&&4-4444444444444444444--444444444-6#######",
"####@#-444444444444&&&44-44444444444444444444-44444444-#########",
"#####@@-44444444444444444-4444444444444444444-44   444-#########",
"#######-44444444444444444-44   444444444444444       4-#########",
"########-44444444444444444       4444444444444       4-#########",
"#########-4444444444444444       444444444444   ,,,   -####.####",
"####@#####--4444444444444   ,,,   4444444442<   ,+,   #.##.#####",
"############-------------   ,+,   -----------   ,,,   ##.#.#@#6#",
"#########@####       ####   ,,,   ############       #@#.#@@#6%6",
"##############6     ######       #############       ##@@#####6#",
"###############6  #######.       ###############   6%6##########",
"######.###################.#   #######.######@######6###########",
"#####.##6###############@#.##########.##6##############6########",
"##.##.#6%6##########@####@@#######.##.#6%6############6%6#######",
"###.#@@#6##########################.#@@#6##############6####.###",
"#@#.#############################@#.#########################.##",
"##@@############@#################@@#############@#########@#.##",
"############################################################@@##"
};
